<svg viewBox="0 0 800 340" xmlns="http://www.w3.org/2000/svg" preserveAspectRatio="xMidYMid slice">
  <rect width="800" height="340" fill="#0d2a10"/>
  <rect x="0" y="180" width="800" height="160" fill="#1a3d15"/>
  <ellipse cx="400" cy="195" rx="280" ry="18" fill="#0f2a0a" opacity="0.6"/>
  <circle cx="120" cy="170" r="90" fill="#e8a020" opacity="0.18"/>
  <circle cx="120" cy="170" r="55" fill="#f5c040" opacity="0.22"/>
  <circle cx="120" cy="170" r="28" fill="#ffe080" opacity="0.35"/>
  <rect x="0" y="240" width="800" height="100" fill="#1f4a18"/>
  <rect x="0" y="270" width="800" height="70" fill="#234f1c"/>
  <line x1="0" y1="200" x2="800" y2="200" stroke="#3a7a2a" stroke-width="2" opacity="0.4"/>
  <line x1="0" y1="220" x2="800" y2="220" stroke="#3a7a2a" stroke-width="2" opacity="0.4"/>
  <line x1="0" y1="240" x2="800" y2="240" stroke="#3a7a2a" stroke-width="2" opacity="0.4"/>
  <line x1="0" y1="260" x2="800" y2="260" stroke="#3a7a2a" stroke-width="2" opacity="0.4"/>
  <line x1="100" y1="200" x2="100" y2="340" stroke="#2d6a20" stroke-width="1.5" opacity="0.3"/>
  <line x1="220" y1="200" x2="220" y2="340" stroke="#2d6a20" stroke-width="1.5" opacity="0.3"/>
  <line x1="340" y1="200" x2="340" y2="340" stroke="#2d6a20" stroke-width="1.5" opacity="0.3"/>
  <line x1="460" y1="200" x2="460" y2="340" stroke="#2d6a20" stroke-width="1.5" opacity="0.3"/>
  <line x1="580" y1="200" x2="580" y2="340" stroke="#2d6a20" stroke-width="1.5" opacity="0.3"/>
  <line x1="700" y1="200" x2="700" y2="340" stroke="#2d6a20" stroke-width="1.5" opacity="0.3"/>
  <ellipse cx="55" cy="215" rx="12" ry="20" fill="#3a8a28" opacity="0.8"/>
  <ellipse cx="55" cy="200" rx="18" ry="14" fill="#4aaa34" opacity="0.85"/>
  <ellipse cx="160" cy="212" rx="12" ry="22" fill="#3a8a28" opacity="0.8"/>
  <ellipse cx="160" cy="196" rx="18" ry="15" fill="#4aaa34" opacity="0.85"/>
  <ellipse cx="280" cy="210" rx="12" ry="20" fill="#3a8a28" opacity="0.8"/>
  <ellipse cx="280" cy="195" rx="18" ry="14" fill="#4aaa34" opacity="0.85"/>
  <ellipse cx="400" cy="208" rx="12" ry="20" fill="#3a8a28" opacity="0.8"/>
  <ellipse cx="400" cy="193" rx="18" ry="14" fill="#4aaa34" opacity="0.85"/>
  <ellipse cx="520" cy="210" rx="12" ry="20" fill="#3a8a28" opacity="0.8"/>
  <ellipse cx="520" cy="195" rx="18" ry="14" fill="#4aaa34" opacity="0.85"/>
  <ellipse cx="640" cy="212" rx="12" ry="22" fill="#3a8a28" opacity="0.8"/>
  <ellipse cx="640" cy="196" rx="18" ry="15" fill="#4aaa34" opacity="0.85"/>
  <ellipse cx="755" cy="213" rx="12" ry="20" fill="#3a8a28" opacity="0.8"/>
  <ellipse cx="755" cy="198" rx="18" ry="14" fill="#4aaa34" opacity="0.85"/>
  <circle cx="580" cy="110" r="3" fill="#5bbdd4" opacity="0.9"/>
  <circle cx="620" cy="90" r="3" fill="#5bbdd4" opacity="0.9"/>
  <circle cx="660" cy="108" r="3" fill="#5bbdd4" opacity="0.9"/>
  <circle cx="700" cy="88" r="3" fill="#5bbdd4" opacity="0.9"/>
  <circle cx="740" cy="106" r="3" fill="#5bbdd4" opacity="0.9"/>
  <path d="M580 110 Q600 100 620 90 Q640 99 660 108 Q680 98 700 88 Q720 97 740 106" fill="none" stroke="#5bbdd4" stroke-width="1.5" opacity="0.6"/>
  <circle cx="600" cy="155" r="22" fill="none" stroke="#5bbdd4" stroke-width="1.5" opacity="0.5"/>
  <circle cx="600" cy="155" r="14" fill="none" stroke="#5bbdd4" stroke-width="1" opacity="0.4"/>
  <path d="M590 155 l8 -8 l12 0 l0 8 l-8 8 Z" fill="#5bbdd4" opacity="0.3"/>
  <rect x="0" y="0" width="800" height="340" fill="url(#gr-ov)" opacity="1"/>
  <defs>
    <linearGradient id="gr-ov" x1="0" y1="0" x2="0" y2="1">
      <stop offset="0%" stop-color="#0d2a10" stop-opacity="0.5"/>
      <stop offset="55%" stop-color="#0d2a10" stop-opacity="0.1"/>
      <stop offset="100%" stop-color="#0d2a10" stop-opacity="0.7"/>
    </linearGradient>
  </defs>
</svg>