<svg viewBox="0 0 800 340" xmlns="http://www.w3.org/2000/svg" preserveAspectRatio="xMidYMid slice">
  <defs>
    <linearGradient id="skyN" x1="0" y1="0" x2="0" y2="1">
      <stop offset="0%" stop-color="#020d1c"/>
      <stop offset="100%" stop-color="#0f2545"/>
    </linearGradient>
    <linearGradient id="ovN" x1="0" y1="0" x2="0" y2="1">
      <stop offset="0%" stop-color="#04101f" stop-opacity="0.3"/>
      <stop offset="55%" stop-color="#04101f" stop-opacity="0.05"/>
      <stop offset="100%" stop-color="#04101f" stop-opacity="0.75"/>
    </linearGradient>
  </defs>
  <rect width="800" height="340" fill="url(#skyN)"/>
  <circle cx="120" cy="70" r="36" fill="#FFF8DC" opacity="0.95"/>
  <circle cx="136" cy="60" r="28" fill="#0f2545"/>
  <circle cx="50" cy="40" r="2.4" fill="white" opacity="0.8"/>
  <circle cx="150" cy="24" r="2" fill="white" opacity="0.7"/>
  <circle cx="240" cy="50" r="3" fill="white" opacity="0.9"/>
  <circle cx="360" cy="16" r="2" fill="white" opacity="0.6"/>
  <circle cx="480" cy="36" r="2.4" fill="white" opacity="0.8"/>
  <circle cx="600" cy="20" r="2" fill="white" opacity="0.7"/>
  <circle cx="720" cy="44" r="3" fill="white" opacity="0.9"/>
  <circle cx="780" cy="10" r="2" fill="white" opacity="0.6"/>
  <circle cx="680" cy="60" r="2.4" fill="#B0D8FF" opacity="0.7"/>
  <circle cx="300" cy="30" r="2" fill="#B0D8FF" opacity="0.8"/>
  <rect x="0" y="220" width="60" height="120" fill="#0d2244"/>
  <rect x="10" y="250" width="8" height="8" fill="#5bbdd4" opacity="0.7"/>
  <rect x="28" y="250" width="8" height="8" fill="#5bbdd4" opacity="0.5"/>
  <rect x="10" y="266" width="8" height="8" fill="#FFE44D" opacity="0.6"/>
  <rect x="50" y="180" width="90" height="160" fill="#0f2a50"/>
  <rect x="60" y="200" width="10" height="10" fill="#FFE44D" opacity="0.8"/>
  <rect x="80" y="200" width="10" height="10" fill="#5bbdd4" opacity="0.7"/>
  <rect x="100" y="200" width="10" height="10" fill="#FFE44D" opacity="0.5"/>
  <rect x="60" y="224" width="10" height="10" fill="#5bbdd4" opacity="0.6"/>
  <rect x="80" y="224" width="10" height="10" fill="#FFE44D" opacity="0.8"/>
  <rect x="130" y="140" width="110" height="200" fill="#122a54"/>
  <rect x="144" y="160" width="12" height="12" fill="#5bbdd4" opacity="0.9"/>
  <rect x="166" y="160" width="12" height="12" fill="#FFE44D" opacity="0.7"/>
  <rect x="190" y="160" width="12" height="12" fill="#5bbdd4" opacity="0.8"/>
  <rect x="144" y="188" width="12" height="12" fill="#FFE44D" opacity="0.8"/>
  <rect x="166" y="188" width="12" height="12" fill="#5bbdd4" opacity="0.6"/>
  <rect x="190" y="188" width="12" height="12" fill="#FFE44D" opacity="0.9"/>
  <rect x="144" y="216" width="12" height="12" fill="#5bbdd4" opacity="0.7"/>
  <rect x="166" y="216" width="12" height="12" fill="#FFE44D" opacity="0.5"/>
  <rect x="300" y="120" width="140" height="220" fill="#0f2a50"/>
  <rect x="316" y="140" width="14" height="14" fill="#FFE44D" opacity="0.9"/>
  <rect x="340" y="140" width="14" height="14" fill="#5bbdd4" opacity="0.8"/>
  <rect x="366" y="140" width="14" height="14" fill="#FFE44D" opacity="0.7"/>
  <rect x="316" y="170" width="14" height="14" fill="#5bbdd4" opacity="0.9"/>
  <rect x="340" y="170" width="14" height="14" fill="#FFE44D" opacity="0.6"/>
  <rect x="366" y="170" width="14" height="14" fill="#5bbdd4" opacity="0.8"/>
  <rect x="316" y="200" width="14" height="14" fill="#FFE44D" opacity="0.7"/>
  <rect x="366" y="200" width="14" height="14" fill="#FFE44D" opacity="0.9"/>
  <rect x="410" y="100" width="120" height="240" fill="#142e58"/>
  <rect x="424" y="118" width="14" height="14" fill="#5bbdd4" opacity="0.9"/>
  <rect x="450" y="118" width="14" height="14" fill="#FFE44D" opacity="0.7"/>
  <rect x="476" y="118" width="14" height="14" fill="#5bbdd4" opacity="0.8"/>
  <rect x="424" y="148" width="14" height="14" fill="#FFE44D" opacity="0.8"/>
  <rect x="450" y="148" width="14" height="14" fill="#5bbdd4" opacity="0.6"/>
  <rect x="424" y="178" width="14" height="14" fill="#5bbdd4" opacity="0.7"/>
  <rect x="450" y="178" width="14" height="14" fill="#FFE44D" opacity="0.9"/>
  <rect x="540" y="160" width="100" height="180" fill="#0d2244"/>
  <rect x="554" y="178" width="12" height="12" fill="#5bbdd4" opacity="0.8"/>
  <rect x="576" y="178" width="12" height="12" fill="#FFE44D" opacity="0.7"/>
  <rect x="598" y="178" width="12" height="12" fill="#5bbdd4" opacity="0.9"/>
  <rect x="554" y="204" width="12" height="12" fill="#FFE44D" opacity="0.6"/>
  <rect x="554" y="230" width="12" height="12" fill="#5bbdd4" opacity="0.7"/>
  <rect x="630" y="130" width="90" height="210" fill="#0f2a50"/>
  <rect x="644" y="148" width="12" height="12" fill="#FFE44D" opacity="0.8"/>
  <rect x="666" y="148" width="12" height="12" fill="#5bbdd4" opacity="0.7"/>
  <rect x="688" y="148" width="12" height="12" fill="#FFE44D" opacity="0.9"/>
  <rect x="644" y="174" width="12" height="12" fill="#5bbdd4" opacity="0.9"/>
  <rect x="666" y="174" width="12" height="12" fill="#FFE44D" opacity="0.6"/>
  <rect x="710" y="170" width="90" height="170" fill="#122a54"/>
  <rect x="722" y="186" width="12" height="12" fill="#5bbdd4" opacity="0.8"/>
  <rect x="744" y="186" width="12" height="12" fill="#FFE44D" opacity="0.7"/>
  <rect x="766" y="186" width="12" height="12" fill="#5bbdd4" opacity="0.9"/>
  <rect x="0" y="330" width="800" height="10" fill="#0a1a30"/>
  <rect x="0" y="330" width="800" height="3" fill="#5bbdd4" opacity="0.25"/>
  <circle cx="260" cy="110" r="10" fill="#5bbdd4" opacity="0.9"/>
  <circle cx="440" cy="90" r="10" fill="#5bbdd4" opacity="0.9"/>
  <circle cx="620" cy="100" r="10" fill="#5bbdd4" opacity="0.9"/>
  <circle cx="260" cy="110" r="18" fill="none" stroke="#5bbdd4" stroke-width="1.5" opacity="0.4"/>
  <circle cx="440" cy="90" r="18" fill="none" stroke="#5bbdd4" stroke-width="1.5" opacity="0.4"/>
  <circle cx="620" cy="100" r="18" fill="none" stroke="#5bbdd4" stroke-width="1.5" opacity="0.4"/>
  <line x1="278" y1="110" x2="422" y2="90" stroke="#5bbdd4" stroke-width="2" opacity="0.5" stroke-dasharray="6 4"/>
  <line x1="458" y1="90" x2="602" y2="100" stroke="#5bbdd4" stroke-width="2" opacity="0.5" stroke-dasharray="6 4"/>
  <rect width="800" height="340" fill="url(#ovN)"/>
</svg>