<svg viewBox="0 0 800 340" xmlns="http://www.w3.org/2000/svg" preserveAspectRatio="xMidYMid slice">
  <defs>
    <linearGradient id="skyE" x1="0" y1="0" x2="0" y2="1">
      <stop offset="0%" stop-color="#0e0220"/>
      <stop offset="45%" stop-color="#1e0840"/>
      <stop offset="100%" stop-color="#320e6a"/>
    </linearGradient>
    <linearGradient id="ovE" x1="0" y1="0" x2="0" y2="1">
      <stop offset="0%" stop-color="#080014" stop-opacity="0.4"/>
      <stop offset="50%" stop-color="#080014" stop-opacity="0.05"/>
      <stop offset="100%" stop-color="#080014" stop-opacity="0.82"/>
    </linearGradient>
  </defs>
  <rect width="800" height="340" fill="url(#skyE)"/>
  <circle cx="50" cy="36" r="3" fill="white" opacity="0.9"/>
  <circle cx="136" cy="16" r="2" fill="white" opacity="0.7"/>
  <circle cx="230" cy="44" r="4" fill="white" opacity="0.9"/>
  <circle cx="330" cy="20" r="2.4" fill="white" opacity="0.8"/>
  <circle cx="420" cy="50" r="3" fill="white" opacity="0.7"/>
  <circle cx="510" cy="16" r="2" fill="white" opacity="0.9"/>
  <circle cx="600" cy="36" r="4" fill="white" opacity="0.8"/>
  <circle cx="700" cy="24" r="2.4" fill="white" opacity="0.7"/>
  <circle cx="770" cy="56" r="3" fill="white" opacity="0.9"/>
  <circle cx="90" cy="90" r="2" fill="#C8B0FF" opacity="0.8"/>
  <circle cx="280" cy="80" r="3" fill="#C8B0FF" opacity="0.7"/>
  <circle cx="560" cy="70" r="2" fill="#C8B0FF" opacity="0.9"/>
  <circle cx="740" cy="96" r="3" fill="#C8B0FF" opacity="0.7"/>
  <path d="M0 160 Q400 100 800 160" fill="none" stroke="white" stroke-width="50" opacity="0.035"/>
  <path d="M0 160 Q400 100 800 160" fill="none" stroke="white" stroke-width="24" opacity="0.045"/>
  <g transform="translate(260, 160)">
    <path d="M0 0 Q-120 10 -140 120 L0 110 Z" fill="#F5F0E8" stroke="#D4C8B0" stroke-width="1.5"/>
    <path d="M0 0 Q120 10 140 120 L0 110 Z" fill="#FFF8F0" stroke="#D4C8B0" stroke-width="1.5"/>
    <line x1="0" y1="0" x2="0" y2="110" stroke="#C8B090" stroke-width="3"/>
    <line x1="-110" y1="36" x2="-24" y2="32" stroke="#C8B8A0" stroke-width="2" opacity="0.65"/>
    <line x1="-110" y1="50" x2="-24" y2="46" stroke="#C8B8A0" stroke-width="1.5" opacity="0.55"/>
    <line x1="-110" y1="64" x2="-24" y2="60" stroke="#C8B8A0" stroke-width="1.5" opacity="0.55"/>
    <line x1="-110" y1="78" x2="-50" y2="74" stroke="#C8B8A0" stroke-width="1.5" opacity="0.45"/>
    <line x1="24" y1="32" x2="110" y2="36" stroke="#C8B8A0" stroke-width="2" opacity="0.65"/>
    <line x1="24" y1="46" x2="110" y2="50" stroke="#C8B8A0" stroke-width="1.5" opacity="0.55"/>
    <line x1="24" y1="60" x2="110" y2="64" stroke="#C8B8A0" stroke-width="1.5" opacity="0.55"/>
    <line x1="24" y1="74" x2="90" y2="78" stroke="#C8B8A0" stroke-width="1.5" opacity="0.45"/>
    <ellipse cx="0" cy="60" rx="150" ry="80" fill="#9060e0" opacity="0.1"/>
  </g>
  <g transform="translate(400, 122)">
    <polygon points="0,-36 40,0 0,12 -40,0" fill="#9060e0"/>
    <rect x="-16" y="0" width="32" height="24" fill="#7040c0"/>
    <line x1="40" y1="0" x2="50" y2="24" stroke="#C8B0FF" stroke-width="3"/>
    <circle cx="50" cy="28" r="6" fill="#FFD700"/>
  </g>
  <g transform="translate(570, 190) rotate(-38)">
    <rect x="-10" y="-90" width="20" height="100" rx="2" fill="#FFD700"/>
    <rect x="-10" y="-96" width="20" height="16" rx="2" fill="#FFA020"/>
    <polygon points="-10,10 10,10 0,36" fill="#F4C0A0"/>
    <polygon points="-4,28 4,28 0,36" fill="#555"/>
    <rect x="-10" y="-104" width="20" height="12" rx="2" fill="#E0A0A0"/>
  </g>
  <circle cx="100" cy="290" r="24" fill="#2a0d50" stroke="#9060e0" stroke-width="3"/>
  <circle cx="240" cy="310" r="24" fill="#2a0d50" stroke="#9060e0" stroke-width="3"/>
  <circle cx="400" cy="296" r="24" fill="#2a0d50" stroke="#9060e0" stroke-width="3"/>
  <circle cx="560" cy="310" r="24" fill="#2a0d50" stroke="#9060e0" stroke-width="3"/>
  <circle cx="700" cy="290" r="24" fill="#2a0d50" stroke="#9060e0" stroke-width="3"/>
  <line x1="124" y1="290" x2="216" y2="304" stroke="#9060e0" stroke-width="2.5" opacity="0.75"/>
  <line x1="264" y1="304" x2="376" y2="298" stroke="#9060e0" stroke-width="2.5" opacity="0.75"/>
  <line x1="424" y1="298" x2="536" y2="306" stroke="#9060e0" stroke-width="2.5" opacity="0.75"/>
  <line x1="584" y1="306" x2="676" y2="294" stroke="#9060e0" stroke-width="2.5" opacity="0.75"/>
  <circle cx="100" cy="282" r="8" fill="#C8B0FF" opacity="0.9"/>
  <circle cx="240" cy="302" r="8" fill="#C8B0FF" opacity="0.9"/>
  <circle cx="400" cy="288" r="8" fill="#C8B0FF" opacity="0.9"/>
  <circle cx="700" cy="282" r="8" fill="#C8B0FF" opacity="0.9"/>
  <rect width="800" height="340" fill="url(#ovE)"/>
</svg>