<svg viewBox="0 0 800 340" xmlns="http://www.w3.org/2000/svg" preserveAspectRatio="xMidYMid slice">
  <defs>
    <linearGradient id="sky1" x1="0" y1="0" x2="0" y2="1">
      <stop offset="0%" stop-color="#87CEEB"/>
      <stop offset="60%" stop-color="#B8E4F4"/>
      <stop offset="100%" stop-color="#D4EFB8"/>
    </linearGradient>
    <linearGradient id="field1" x1="0" y1="0" x2="0" y2="1">
      <stop offset="0%" stop-color="#5A9E3A"/>
      <stop offset="100%" stop-color="#3A7020"/>
    </linearGradient>
    <linearGradient id="ov1" x1="0" y1="0" x2="0" y2="1">
      <stop offset="0%" stop-color="#0d2a10" stop-opacity="0.45"/>
      <stop offset="50%" stop-color="#0d2a10" stop-opacity="0.1"/>
      <stop offset="100%" stop-color="#0d2a10" stop-opacity="0.72"/>
    </linearGradient>
  </defs>
  <rect width="800" height="340" fill="url(#sky1)"/>
  <circle cx="680" cy="110" r="56" fill="#FFD700" opacity="0.9"/>
  <circle cx="680" cy="110" r="76" fill="#FFE44D" opacity="0.25"/>
  <ellipse cx="160" cy="90" rx="80" ry="32" fill="white" opacity="0.85"/>
  <ellipse cx="220" cy="76" rx="56" ry="28" fill="white" opacity="0.9"/>
  <ellipse cx="110" cy="100" rx="44" ry="24" fill="white" opacity="0.8"/>
  <ellipse cx="420" cy="60" rx="70" ry="26" fill="white" opacity="0.75"/>
  <ellipse cx="476" cy="50" rx="44" ry="22" fill="white" opacity="0.8"/>
  <ellipse cx="100" cy="270" rx="260" ry="40" fill="#7DB85A"/>
  <ellipse cx="640" cy="280" rx="240" ry="38" fill="#6AAA48"/>
  <rect x="0" y="220" width="800" height="120" fill="url(#field1)"/>
  <path d="M0 248 Q400 236 800 248" fill="none" stroke="#4A8A2A" stroke-width="2.5"/>
  <path d="M0 268 Q400 256 800 268" fill="none" stroke="#4A8A2A" stroke-width="2.5"/>
  <path d="M0 290 Q400 278 800 290" fill="none" stroke="#4A8A2A" stroke-width="2.5"/>
  <path d="M0 314 Q400 302 800 314" fill="none" stroke="#3A7020" stroke-width="3"/>
  <rect x="0" y="246" width="800" height="4" fill="#5bbdd4" opacity="0.65"/>
  <rect x="0" y="266" width="800" height="4" fill="#5bbdd4" opacity="0.65"/>
  <rect x="0" y="288" width="800" height="4" fill="#5bbdd4" opacity="0.65"/>
  <circle cx="120" cy="247" r="8" fill="#5bbdd4"/>
  <circle cx="320" cy="247" r="8" fill="#5bbdd4"/>
  <circle cx="520" cy="247" r="8" fill="#5bbdd4"/>
  <circle cx="720" cy="247" r="8" fill="#5bbdd4"/>
  <path d="M120 247 Q110 232 100 224" fill="none" stroke="#5bbdd4" stroke-width="2" opacity="0.7"/>
  <path d="M120 247 Q120 230 115 222" fill="none" stroke="#5bbdd4" stroke-width="2" opacity="0.7"/>
  <path d="M120 247 Q132 232 140 224" fill="none" stroke="#5bbdd4" stroke-width="2" opacity="0.7"/>
  <g fill="#2d7a15" opacity="0.9">
    <ellipse cx="60" cy="236" rx="16" ry="12"/><ellipse cx="110" cy="232" rx="16" ry="12"/>
    <ellipse cx="160" cy="236" rx="16" ry="12"/><ellipse cx="210" cy="232" rx="16" ry="12"/>
    <ellipse cx="260" cy="236" rx="16" ry="12"/><ellipse cx="310" cy="232" rx="16" ry="12"/>
    <ellipse cx="360" cy="236" rx="16" ry="12"/><ellipse cx="410" cy="232" rx="16" ry="12"/>
    <ellipse cx="460" cy="236" rx="16" ry="12"/><ellipse cx="510" cy="232" rx="16" ry="12"/>
    <ellipse cx="560" cy="236" rx="16" ry="12"/><ellipse cx="610" cy="232" rx="16" ry="12"/>
    <ellipse cx="660" cy="236" rx="16" ry="12"/><ellipse cx="710" cy="232" rx="16" ry="12"/>
    <ellipse cx="760" cy="236" rx="16" ry="12"/>
  </g>
  <rect x="370" cy="195" x="370" y="190" width="36" height="56" rx="6" fill="#2a4a7a"/>
  <rect x="374" y="196" width="28" height="20" rx="4" fill="#5bbdd4" opacity="0.8"/>
  <line x1="388" y1="190" x2="388" y2="174" stroke="#2a4a7a" stroke-width="4"/>
  <circle cx="388" cy="170" r="8" fill="#5bbdd4"/>
  <circle cx="388" cy="170" r="14" fill="#5bbdd4" opacity="0.25"/>
  <rect x="0" y="0" width="800" height="340" fill="url(#ov1)"/>
</svg>