<svg viewBox="0 0 800 340" xmlns="http://www.w3.org/2000/svg" preserveAspectRatio="xMidYMid slice">
  <defs>
    <linearGradient id="skyS" x1="0" y1="0" x2="0" y2="1">
      <stop offset="0%" stop-color="#FF6B35"/>
      <stop offset="30%" stop-color="#FF9A44"/>
      <stop offset="60%" stop-color="#FFB347"/>
      <stop offset="100%" stop-color="#C8602A"/>
    </linearGradient>
    <linearGradient id="desS" x1="0" y1="0" x2="0" y2="1">
      <stop offset="0%" stop-color="#D4A044"/>
      <stop offset="100%" stop-color="#8B6520"/>
    </linearGradient>
    <linearGradient id="panS" x1="0" y1="0" x2="0" y2="1">
      <stop offset="0%" stop-color="#1e4a8a"/>
      <stop offset="100%" stop-color="#0a2240"/>
    </linearGradient>
    <linearGradient id="ovS" x1="0" y1="0" x2="0" y2="1">
      <stop offset="0%" stop-color="#80300a" stop-opacity="0.25"/>
      <stop offset="50%" stop-color="#80300a" stop-opacity="0.0"/>
      <stop offset="100%" stop-color="#80300a" stop-opacity="0.55"/>
    </linearGradient>
  </defs>
  <rect width="800" height="340" fill="url(#skyS)"/>
  <circle cx="400" cy="195" r="100" fill="#FFE060" opacity="0.18"/>
  <circle cx="400" cy="195" r="70" fill="#FFD020" opacity="0.28"/>
  <circle cx="400" cy="195" r="44" fill="#FFEE00" opacity="0.92"/>
  <path d="M0 240 Q200 226 400 240 Q600 254 800 240" fill="none" stroke="#FFD080" stroke-width="1.5" opacity="0.4"/>
  <path d="M0 250 Q200 236 400 250 Q600 264 800 250" fill="none" stroke="#FFD080" stroke-width="1" opacity="0.3"/>
  <rect x="0" y="242" width="800" height="98" fill="url(#desS)"/>
  <ellipse cx="160" cy="242" rx="240" ry="28" fill="#C89030"/>
  <ellipse cx="640" cy="242" rx="220" ry="26" fill="#BC8828"/>
  <g>
    <rect x="60" y="270" width="110" height="60" rx="3" fill="#1a2a3a" stroke="#2a4a6a" stroke-width="1.5"/>
    <rect x="64" y="274" width="48" height="25" rx="2" fill="url(#panS)" stroke="#2a5a9a" stroke-width="0.8"/>
    <rect x="116" y="274" width="48" height="25" rx="2" fill="url(#panS)" stroke="#2a5a9a" stroke-width="0.8"/>
    <rect x="64" y="302" width="48" height="25" rx="2" fill="url(#panS)" stroke="#2a5a9a" stroke-width="0.8"/>
    <rect x="116" y="302" width="48" height="25" rx="2" fill="url(#panS)" stroke="#2a5a9a" stroke-width="0.8"/>
    <line x1="66" y1="277" x2="110" y2="277" stroke="#5bbdd4" stroke-width="1.2" opacity="0.6"/>
    <line x1="118" y1="277" x2="162" y2="277" stroke="#5bbdd4" stroke-width="1.2" opacity="0.6"/>
    <line x1="66" y1="283" x2="110" y2="283" stroke="#5bbdd4" stroke-width="0.8" opacity="0.4"/>
  </g>
  <g>
    <rect x="200" y="264" width="110" height="60" rx="3" fill="#1a2a3a" stroke="#2a4a6a" stroke-width="1.5"/>
    <rect x="204" y="268" width="48" height="25" rx="2" fill="url(#panS)" stroke="#2a5a9a" stroke-width="0.8"/>
    <rect x="256" y="268" width="48" height="25" rx="2" fill="url(#panS)" stroke="#2a5a9a" stroke-width="0.8"/>
    <rect x="204" y="296" width="48" height="25" rx="2" fill="url(#panS)" stroke="#2a5a9a" stroke-width="0.8"/>
    <rect x="256" y="296" width="48" height="25" rx="2" fill="url(#panS)" stroke="#2a5a9a" stroke-width="0.8"/>
    <line x1="206" y1="271" x2="250" y2="271" stroke="#5bbdd4" stroke-width="1.2" opacity="0.6"/>
  </g>
  <g>
    <rect x="346" y="268" width="110" height="60" rx="3" fill="#1a2a3a" stroke="#2a4a6a" stroke-width="1.5"/>
    <rect x="350" y="272" width="48" height="25" rx="2" fill="url(#panS)" stroke="#2a5a9a" stroke-width="0.8"/>
    <rect x="402" y="272" width="48" height="25" rx="2" fill="url(#panS)" stroke="#2a5a9a" stroke-width="0.8"/>
    <rect x="350" y="300" width="48" height="25" rx="2" fill="url(#panS)" stroke="#2a5a9a" stroke-width="0.8"/>
    <rect x="402" y="300" width="48" height="25" rx="2" fill="url(#panS)" stroke="#2a5a9a" stroke-width="0.8"/>
    <line x1="352" y1="275" x2="396" y2="275" stroke="#5bbdd4" stroke-width="1.2" opacity="0.6"/>
    <line x1="404" y1="275" x2="448" y2="275" stroke="#5bbdd4" stroke-width="1.2" opacity="0.6"/>
  </g>
  <g>
    <rect x="490" y="264" width="110" height="60" rx="3" fill="#1a2a3a" stroke="#2a4a6a" stroke-width="1.5"/>
    <rect x="494" y="268" width="48" height="25" rx="2" fill="url(#panS)" stroke="#2a5a9a" stroke-width="0.8"/>
    <rect x="546" y="268" width="48" height="25" rx="2" fill="url(#panS)" stroke="#2a5a9a" stroke-width="0.8"/>
    <rect x="494" y="296" width="48" height="25" rx="2" fill="url(#panS)" stroke="#2a5a9a" stroke-width="0.8"/>
    <rect x="546" y="296" width="48" height="25" rx="2" fill="url(#panS)" stroke="#2a5a9a" stroke-width="0.8"/>
    <line x1="496" y1="271" x2="540" y2="271" stroke="#5bbdd4" stroke-width="1.2" opacity="0.6"/>
  </g>
  <g>
    <rect x="630" y="270" width="110" height="60" rx="3" fill="#1a2a3a" stroke="#2a4a6a" stroke-width="1.5"/>
    <rect x="634" y="274" width="48" height="25" rx="2" fill="url(#panS)" stroke="#2a5a9a" stroke-width="0.8"/>
    <rect x="686" y="274" width="48" height="25" rx="2" fill="url(#panS)" stroke="#2a5a9a" stroke-width="0.8"/>
    <rect x="634" y="302" width="48" height="25" rx="2" fill="url(#panS)" stroke="#2a5a9a" stroke-width="0.8"/>
    <rect x="686" y="302" width="48" height="25" rx="2" fill="url(#panS)" stroke="#2a5a9a" stroke-width="0.8"/>
    <line x1="636" y1="277" x2="680" y2="277" stroke="#5bbdd4" stroke-width="1.2" opacity="0.6"/>
  </g>
  <line x1="760" y1="340" x2="760" y2="258" stroke="#5A3A10" stroke-width="10"/>
  <ellipse cx="740" cy="248" rx="36" ry="14" fill="#2A6A10" transform="rotate(-22,740,248)"/>
  <ellipse cx="768" cy="236" rx="32" ry="12" fill="#2A6A10" transform="rotate(18,768,236)"/>
  <ellipse cx="754" cy="228" rx="28" ry="10" fill="#3A7A18" transform="rotate(-6,754,228)"/>
  <rect width="800" height="340" fill="url(#ovS)"/>
</svg>