<svg viewBox="0 0 800 340" xmlns="http://www.w3.org/2000/svg" preserveAspectRatio="xMidYMid slice">
  <defs>
    <linearGradient id="skyL" x1="0" y1="0" x2="0" y2="1">
      <stop offset="0%" stop-color="#FFF3D0"/>
      <stop offset="55%" stop-color="#FFD878"/>
      <stop offset="100%" stop-color="#E09020"/>
    </linearGradient>
    <linearGradient id="roadL" x1="0" y1="0" x2="1" y2="0">
      <stop offset="0%" stop-color="#444"/>
      <stop offset="50%" stop-color="#555"/>
      <stop offset="100%" stop-color="#444"/>
    </linearGradient>
    <linearGradient id="ovL" x1="0" y1="0" x2="0" y2="1">
      <stop offset="0%" stop-color="#3a2000" stop-opacity="0.22"/>
      <stop offset="50%" stop-color="#3a2000" stop-opacity="0.0"/>
      <stop offset="100%" stop-color="#3a2000" stop-opacity="0.58"/>
    </linearGradient>
  </defs>
  <rect width="800" height="340" fill="url(#skyL)"/>
  <circle cx="400" cy="268" r="100" fill="#FF8C00" opacity="0.3"/>
  <circle cx="400" cy="268" r="64" fill="#FFA500" opacity="0.45"/>
  <circle cx="400" cy="268" r="36" fill="#FFD700" opacity="0.85"/>
  <rect x="0" y="248" width="800" height="92" fill="#7A6040"/>
  <ellipse cx="120" cy="248" rx="200" ry="22" fill="#6A5030"/>
  <ellipse cx="680" cy="248" rx="180" ry="20" fill="#604820"/>
  <polygon points="280,248 520,248 800,340 0,340" fill="url(#roadL)"/>
  <polygon points="396,248 404,248 440,340 360,340" fill="#4a4a4a"/>
  <rect x="0" y="332" width="800" height="5" fill="#e09020" opacity="0.55"/>
  <line x1="398" y1="262" x2="392" y2="290" stroke="white" stroke-width="3" opacity="0.75"/>
  <line x1="400" y1="298" x2="394" y2="326" stroke="white" stroke-width="3" opacity="0.75"/>
  <rect x="260" y="196" width="170" height="84" rx="6" fill="#2a4a7a"/>
  <rect x="370" y="196" width="60" height="84" rx="5" fill="#3a5a8a"/>
  <rect x="378" y="204" width="44" height="30" rx="4" fill="#B8D8F8"/>
  <rect x="264" y="210" width="100" height="56" rx="4" fill="white" opacity="0.92"/>
  <rect x="270" y="218" width="88" height="40" rx="3" fill="#0f1923"/>
  <text x="314" y="244" text-anchor="middle" fill="#5bbdd4" font-size="16" font-weight="bold" font-family="Arial">EMERGE</text>
  <circle cx="294" cy="282" r="18" fill="#1a1a1a"/>
  <circle cx="294" cy="282" r="11" fill="#666"/>
  <circle cx="294" cy="282" r="5" fill="#999"/>
  <circle cx="390" cy="282" r="18" fill="#1a1a1a"/>
  <circle cx="390" cy="282" r="11" fill="#666"/>
  <circle cx="390" cy="282" r="5" fill="#999"/>
  <rect x="100" y="232" width="72" height="36" rx="7" fill="#5bbdd4"/>
  <circle cx="116" cy="270" r="14" fill="#1a1a1a"/>
  <circle cx="116" cy="270" r="8" fill="#777"/>
  <circle cx="160" cy="270" r="14" fill="#1a1a1a"/>
  <circle cx="160" cy="270" r="8" fill="#777"/>
  <ellipse cx="136" cy="225" rx="22" ry="12" fill="#4aadbe"/>
  <rect x="120" y="214" width="36" height="24" rx="4" fill="#e09020"/>
  <circle cx="120" cy="160" r="10" fill="#e09020" opacity="0.9"/>
  <circle cx="280" cy="130" r="10" fill="#e09020" opacity="0.9"/>
  <circle cx="480" cy="145" r="10" fill="#e09020" opacity="0.9"/>
  <circle cx="660" cy="120" r="10" fill="#e09020" opacity="0.9"/>
  <path d="M120 160 Q200 140 280 130 Q380 137 480 145 Q570 138 660 120" fill="none" stroke="#e09020" stroke-width="2.5" stroke-dasharray="10 6" opacity="0.75"/>
  <circle cx="120" cy="160" r="18" fill="none" stroke="#e09020" stroke-width="2" opacity="0.45"/>
  <circle cx="660" cy="120" r="18" fill="none" stroke="#e09020" stroke-width="2" opacity="0.45"/>
  <rect width="800" height="340" fill="url(#ovL)"/>
</svg>