<svg viewBox="0 0 800 340" xmlns="http://www.w3.org/2000/svg" preserveAspectRatio="xMidYMid slice">
  <defs>
    <linearGradient id="skyD" x1="0" y1="0" x2="0" y2="1">
      <stop offset="0%" stop-color="#E8F4F8"/>
      <stop offset="100%" stop-color="#C8E8F4"/>
    </linearGradient>
    <linearGradient id="ovD" x1="0" y1="0" x2="0" y2="1">
      <stop offset="0%" stop-color="#001830" stop-opacity="0.28"/>
      <stop offset="50%" stop-color="#001830" stop-opacity="0.08"/>
      <stop offset="100%" stop-color="#001830" stop-opacity="0.65"/>
    </linearGradient>
  </defs>
  <rect width="800" height="340" fill="url(#skyD)"/>
  <rect x="160" y="80" width="480" height="260" rx="6" fill="#F0F8FF" stroke="#D0E8F4" stroke-width="2"/>
  <g fill="#B8D8F0" opacity="0.8">
    <rect x="188" y="110" width="32" height="24" rx="3"/><rect x="232" y="110" width="32" height="24" rx="3"/>
    <rect x="276" y="110" width="32" height="24" rx="3"/><rect x="320" y="110" width="32" height="24" rx="3"/>
    <rect x="364" y="110" width="32" height="24" rx="3"/><rect x="408" y="110" width="32" height="24" rx="3"/>
    <rect x="452" y="110" width="32" height="24" rx="3"/><rect x="496" y="110" width="32" height="24" rx="3"/>
    <rect x="540" y="110" width="32" height="24" rx="3"/><rect x="584" y="110" width="32" height="24" rx="3"/>
    <rect x="188" y="148" width="32" height="24" rx="3"/><rect x="232" y="148" width="32" height="24" rx="3"/>
    <rect x="276" y="148" width="32" height="24" rx="3"/><rect x="364" y="148" width="32" height="24" rx="3"/>
    <rect x="408" y="148" width="32" height="24" rx="3"/><rect x="452" y="148" width="32" height="24" rx="3"/>
    <rect x="496" y="148" width="32" height="24" rx="3"/><rect x="540" y="148" width="32" height="24" rx="3"/>
    <rect x="584" y="148" width="32" height="24" rx="3"/><rect x="188" y="186" width="32" height="24" rx="3"/>
    <rect x="232" y="186" width="32" height="24" rx="3"/><rect x="452" y="186" width="32" height="24" rx="3"/>
    <rect x="496" y="186" width="32" height="24" rx="3"/><rect x="540" y="186" width="32" height="24" rx="3"/>
    <rect x="584" y="186" width="32" height="24" rx="3"/>
  </g>
  <rect x="372" y="28" width="40" height="100" rx="6" fill="#E53030"/>
  <rect x="342" y="58" width="100" height="40" rx="6" fill="#E53030"/>
  <rect x="344" y="230" width="112" height="110" rx="4" fill="#D0E8F8"/>
  <rect x="366" y="248" width="68" height="92" rx="3" fill="#B0D0F0"/>
  <rect x="0" y="316" width="800" height="24" fill="#CBD8E0"/>
  <rect x="0" y="316" width="800" height="3" fill="#A8C0CC"/>
  <rect x="560" y="140" width="80" height="140" rx="12" fill="#1a2a3a" stroke="#2a4a6a" stroke-width="2"/>
  <rect x="570" y="154" width="60" height="96" rx="6" fill="#0a1f35"/>
  <polyline points="574,202 588,202 596,178 604,224 612,188 620,202 628,202" fill="none" stroke="#5bbdd4" stroke-width="3" stroke-linecap="round" stroke-linejoin="round"/>
  <circle cx="582" cy="168" r="7" fill="#E53030" opacity="0.9"/>
  <circle cx="600" cy="168" r="7" fill="#5bbdd4" opacity="0.9"/>
  <circle cx="618" cy="168" r="7" fill="#2a7a4a" opacity="0.9"/>
  <rect x="30" y="254" width="96" height="52" rx="5" fill="white" stroke="#E0E0E0" stroke-width="1.5"/>
  <rect x="30" y="254" width="38" height="52" rx="5" fill="#D0E8F8"/>
  <circle cx="52" cy="308" r="13" fill="#333"/>
  <circle cx="52" cy="308" r="8" fill="#888"/>
  <circle cx="105" cy="308" r="13" fill="#333"/>
  <circle cx="105" cy="308" r="8" fill="#888"/>
  <rect x="56" y="268" width="16" height="24" rx="2" fill="#E53030"/>
  <rect x="50" y="274" width="28" height="12" rx="2" fill="#E53030"/>
  <circle cx="660" cy="80" r="40" fill="white" stroke="#E0E8F0" stroke-width="2"/>
  <circle cx="660" cy="80" r="32" fill="#F8FCFF"/>
  <polyline points="640,80 652,80 658,66 664,94 670,72 676,80 680,80" fill="none" stroke="#5bbdd4" stroke-width="2.5" stroke-linecap="round" stroke-linejoin="round"/>
  <rect width="800" height="340" fill="url(#ovD)"/>
</svg>