<svg viewBox="0 0 800 340" xmlns="http://www.w3.org/2000/svg" preserveAspectRatio="xMidYMid slice">
  <rect width="800" height="340" fill="#04101f"/>
  <rect x="0" y="200" width="800" height="140" fill="#061828"/>
  <rect x="30" y="140" width="40" height="200" fill="#0a2240"/>
  <rect x="80" y="100" width="55" height="240" fill="#0c2848"/>
  <rect x="145" y="120" width="35" height="220" fill="#0a2240"/>
  <rect x="190" y="80" width="65" height="260" fill="#0e2e52"/>
  <rect x="265" y="110" width="45" height="230" fill="#0a2240"/>
  <rect x="320" y="60" width="80" height="280" fill="#102050"/>
  <rect x="410" y="90" width="50" height="250" fill="#0a2240"/>
  <rect x="470" y="115" width="40" height="225" fill="#0c2848"/>
  <rect x="520" y="70" width="70" height="270" fill="#0e2e52"/>
  <rect x="600" y="100" width="45" height="240" fill="#0a2240"/>
  <rect x="655" y="130" width="55" height="210" fill="#0c2848"/>
  <rect x="720" y="85" width="50" height="255" fill="#0e2e52"/>
  <rect x="40" y="148" width="6" height="4" fill="#5bbdd4" opacity="0.6"/>
  <rect x="54" y="160" width="6" height="4" fill="#5bbdd4" opacity="0.4"/>
  <rect x="95" y="112" width="6" height="4" fill="#5bbdd4" opacity="0.6"/>
  <rect x="110" y="124" width="6" height="4" fill="#5bbdd4" opacity="0.4"/>
  <rect x="125" y="136" width="6" height="4" fill="#5bbdd4" opacity="0.5"/>
  <rect x="200" y="92" width="6" height="4" fill="#5bbdd4" opacity="0.6"/>
  <rect x="220" y="104" width="6" height="4" fill="#5bbdd4" opacity="0.4"/>
  <rect x="335" y="72" width="6" height="4" fill="#5bbdd4" opacity="0.7"/>
  <rect x="350" y="84" width="6" height="4" fill="#5bbdd4" opacity="0.5"/>
  <rect x="365" y="96" width="6" height="4" fill="#5bbdd4" opacity="0.4"/>
  <rect x="535" y="82" width="6" height="4" fill="#5bbdd4" opacity="0.6"/>
  <rect x="550" y="94" width="6" height="4" fill="#5bbdd4" opacity="0.5"/>
  <rect x="565" y="106" width="6" height="4" fill="#5bbdd4" opacity="0.4"/>
  <circle cx="200" cy="60" r="3" fill="#5bbdd4" opacity="0.9"/>
  <circle cx="360" cy="40" r="3" fill="#5bbdd4" opacity="0.9"/>
  <circle cx="520" cy="55" r="3" fill="#5bbdd4" opacity="0.9"/>
  <circle cx="650" cy="45" r="3" fill="#5bbdd4" opacity="0.9"/>
  <path d="M200 60 Q280 30 360 40 Q440 50 520 55 Q585 50 650 45" fill="none" stroke="#5bbdd4" stroke-width="1" stroke-dasharray="4 3" opacity="0.5"/>
  <circle cx="200" cy="60" r="8" fill="none" stroke="#5bbdd4" stroke-width="1" opacity="0.4"/>
  <circle cx="360" cy="40" r="8" fill="none" stroke="#5bbdd4" stroke-width="1" opacity="0.4"/>
  <circle cx="520" cy="55" r="8" fill="none" stroke="#5bbdd4" stroke-width="1" opacity="0.4"/>
  <circle cx="650" cy="45" r="8" fill="none" stroke="#5bbdd4" stroke-width="1" opacity="0.4"/>
  <rect x="0" y="0" width="800" height="340" fill="url(#nq-ov)"/>
  <defs>
    <linearGradient id="nq-ov" x1="0" y1="0" x2="0" y2="1">
      <stop offset="0%" stop-color="#04101f" stop-opacity="0.3"/>
      <stop offset="60%" stop-color="#04101f" stop-opacity="0.05"/>
      <stop offset="100%" stop-color="#04101f" stop-opacity="0.75"/>
    </linearGradient>
  </defs>
</svg>